<svg width="115" height="124" viewBox="0 0 115 124" fill="none" xmlns="http://www.w3.org/2000/svg">
<path d="M0 60C0 29.0721 25.0721 4 56 4H58.8225C89.7505 4 114.823 29.0721 114.823 60V62.8225C114.823 93.7505 89.7505 118.823 58.8225 118.823H56C25.0721 118.823 0 93.7505 0 62.8225V60Z" fill="#F5F3EC"/>
<path d="M61.7221 92.8246C59.4725 92.6118 57.4529 92.0036 55.6632 91C53.8319 89.9964 52.272 88.7016 50.9835 87.1156C49.695 85.5297 48.7194 83.7153 48.0569 81.6723C47.3526 79.6292 47.0027 77.5035 47.0071 75.2952C47.0091 74.2952 47.0736 73.2953 47.2006 72.2955L68.6381 72.3384L68.6271 77.8384L54.1896 77.8095C54.1874 78.8929 54.3729 79.9349 54.7459 80.9357C55.0772 81.9363 55.5962 82.854 56.3028 83.6888C56.9678 84.5651 57.758 85.2959 58.6735 85.881C59.589 86.4662 60.6091 86.8224 61.7338 86.9497L61.7221 92.8246ZM62.0315 63.1377C61.5731 63.1368 61.0106 63.1773 60.3437 63.2593C59.6351 63.3829 58.9056 63.5689 58.1551 63.8174C57.3629 64.1075 56.5913 64.4602 55.8405 64.8753C55.048 65.2904 54.3595 65.789 53.775 66.3712L51.0334 62.1782C52.4118 60.4726 54.0185 59.1842 55.8536 58.3128C57.6887 57.4415 60.0229 57.0087 62.8562 57.0143C65.1479 57.0189 67.2928 57.4816 69.291 58.4022C71.289 59.3646 72.9948 60.6596 74.4082 62.2875C75.8216 63.9153 76.9428 65.8134 77.7718 67.9817C78.6008 70.15 79.0128 72.4842 79.0078 74.9842C79.0031 77.3592 78.6236 79.6084 77.8693 81.7319C77.0734 83.8553 76.0072 85.7074 74.6707 87.288C73.3341 88.9104 71.7898 90.2198 70.0378 91.2163C68.2441 92.2127 66.3264 92.7714 64.2844 92.8923L64.2965 86.8923C65.8387 86.6037 67.1108 85.9812 68.1127 85.0249C69.1146 84.0686 69.9085 82.966 70.4943 81.7172C71.0384 80.5099 71.4367 79.2607 71.6893 77.9696C71.9002 76.6783 72.0066 75.5744 72.0084 74.6577C72.0117 73.0327 71.8272 71.5115 71.4551 70.0941C71.0412 68.7182 70.4186 67.5087 69.5873 66.4653C68.756 65.4637 67.7368 64.6491 66.5297 64.0217C65.2809 63.4359 63.7815 63.1412 62.0315 63.1377Z" fill="black"/>
<path d="M52.75 30.4375C55 30.6458 57.0208 31.25 58.8125 32.25C60.6458 33.25 62.2083 34.5417 63.5 36.125C64.7917 37.7083 65.7708 39.5208 66.4375 41.5625C67.1458 43.6042 67.5 45.7292 67.5 47.9375C67.5 48.9375 67.4375 49.9375 67.3125 50.9375H45.875V45.4375H60.3125C60.3125 44.3542 60.125 43.3125 59.75 42.3125C59.4167 41.3125 58.8958 40.3958 58.1875 39.5625C57.5208 38.6875 56.7292 37.9583 55.8125 37.375C54.8958 36.7917 53.875 36.4375 52.75 36.3125V30.4375ZM52.5 60.125C52.9583 60.125 53.5208 60.0833 54.1875 60C54.8958 59.875 55.625 59.6875 56.375 59.4375C57.1667 59.1458 57.9375 58.7917 58.6875 58.375C59.4792 57.9583 60.1667 57.4583 60.75 56.875L63.5 61.0625C62.125 62.7708 60.5208 64.0625 58.6875 64.9375C56.8542 65.8125 54.5208 66.25 51.6875 66.25C49.3958 66.25 47.25 65.7917 45.25 64.875C43.25 63.9167 41.5417 62.625 40.125 61C38.7083 59.375 37.5833 57.4792 36.75 55.3125C35.9167 53.1458 35.5 50.8125 35.5 48.3125C35.5 45.9375 35.875 43.6875 36.625 41.5625C37.4167 39.4375 38.4792 37.5833 39.8125 36C41.1458 34.375 42.6875 33.0625 44.4375 32.0625C46.2292 31.0625 48.1458 30.5 50.1875 30.375V36.375C48.6458 36.6667 47.375 37.2917 46.375 38.25C45.375 39.2083 44.5833 40.3125 44 41.5625C43.4583 42.7708 43.0625 44.0208 42.8125 45.3125C42.6042 46.6042 42.5 47.7083 42.5 48.625C42.5 50.25 42.6875 51.7708 43.0625 53.1875C43.4792 54.5625 44.1042 55.7708 44.9375 56.8125C45.7708 57.8125 46.7917 58.625 48 59.25C49.25 59.8333 50.75 60.125 52.5 60.125Z" fill="black"/>
</svg>
